<svg width="92" height="93" viewBox="0 0 92 93" fill="none" xmlns="http://www.w3.org/2000/svg">
<g filter="url(#filter0_d)">
<rect x="16" y="12.4301" width="60" height="60" rx="20" fill="white"/>
<path d="M46 31.3051L45.5312 31.5551L32.0312 38.5551L30.3125 39.4301L32 40.2739V48.7114C31.4023 49.059 31 49.6918 31 50.4301C31 51.5356 31.8945 52.4301 33 52.4301C34.1055 52.4301 35 51.5356 35 50.4301C35 49.6918 34.5977 49.059 34 48.7114V41.3051L36 42.3364V47.4301C36 47.8715 36.2031 48.27 36.4375 48.5239C36.6719 48.7778 36.957 48.9301 37.25 49.0864C37.8398 49.395 38.5391 49.6137 39.4062 49.8051C41.1406 50.1918 43.4531 50.4301 46 50.4301C48.5469 50.4301 50.8594 50.1918 52.5938 49.8051C53.4609 49.6137 54.1602 49.395 54.75 49.0864C55.043 48.9301 55.3281 48.7778 55.5625 48.5239C55.7969 48.27 56 47.8715 56 47.4301V42.3364L59.9688 40.3051L61.6875 39.4301L59.9688 38.5551L46.4688 31.5551L46 31.3051ZM46 33.5551L57.3125 39.4301L55.5312 40.3364C55.3047 40.0981 55.0312 39.9223 54.75 39.7739C54.1641 39.4653 53.4609 39.2465 52.5938 39.0551C50.8633 38.6684 48.5586 38.4301 46 38.4301C43.4414 38.4301 41.1367 38.6684 39.4062 39.0551C38.5391 39.2465 37.8359 39.4653 37.25 39.7739C36.9688 39.9223 36.6953 40.0981 36.4688 40.3364L34.6875 39.4301L46 33.5551ZM46 40.4301C48.4414 40.4301 50.6367 40.6528 52.1562 40.9926C52.9141 41.1606 53.5234 41.3559 53.8438 41.5239C53.9453 41.5786 53.9609 41.6176 54 41.6489V45.4614C53.582 45.309 53.125 45.1723 52.5938 45.0551C50.8594 44.6684 48.5469 44.4301 46 44.4301C43.4531 44.4301 41.1406 44.6684 39.4062 45.0551C38.875 45.1723 38.418 45.309 38 45.4614V41.6489C38.0391 41.6176 38.0547 41.5786 38.1562 41.5239C38.4766 41.3559 39.0859 41.1606 39.8438 40.9926C41.3633 40.6528 43.5586 40.4301 46 40.4301ZM46 46.4301C48.4258 46.4301 50.6328 46.6528 52.1562 46.9926C52.7891 47.1332 53.1875 47.2817 53.5312 47.4301C53.1875 47.5786 52.7891 47.727 52.1562 47.8676C50.6328 48.2075 48.4258 48.4301 46 48.4301C43.5742 48.4301 41.3672 48.2075 39.8438 47.8676C39.2109 47.727 38.8125 47.5786 38.4688 47.4301C38.8125 47.2817 39.2109 47.1332 39.8438 46.9926C41.3672 46.6528 43.5742 46.4301 46 46.4301Z" fill="#FF5224"/>
</g>
<defs>
<filter id="filter0_d" x="0" y="0.430115" width="92" height="92" filterUnits="userSpaceOnUse" color-interpolation-filters="sRGB">
<feFlood flood-opacity="0" result="BackgroundImageFix"/>
<feColorMatrix in="SourceAlpha" type="matrix" values="0 0 0 0 0 0 0 0 0 0 0 0 0 0 0 0 0 0 127 0"/>
<feOffset dy="4"/>
<feGaussianBlur stdDeviation="8"/>
<feColorMatrix type="matrix" values="0 0 0 0 0.8 0 0 0 0 0.955556 0 0 0 0 1 0 0 0 1 0"/>
<feBlend mode="normal" in2="BackgroundImageFix" result="effect1_dropShadow"/>
<feBlend mode="normal" in="SourceGraphic" in2="effect1_dropShadow" result="shape"/>
</filter>
</defs>
</svg>
