<svg width="92" height="93" viewBox="0 0 92 93" fill="none" xmlns="http://www.w3.org/2000/svg">
<g filter="url(#filter0_d)">
<rect x="16" y="12.4301" width="60" height="60" rx="20" fill="white"/>
<path d="M42.1387 28.3188C41.2586 28.3434 40.3125 28.7213 39.5176 29.5297C38.7469 30.3132 38.4952 31.3741 38.5781 32.3325C38.5936 32.5111 38.6278 32.6854 38.6621 32.8598C37.8645 32.8055 36.9592 33.0582 36.2949 33.7211C35.3032 34.7052 35.3386 36.1559 35.7773 37.2856C35.8399 37.4466 35.9239 37.5985 36 37.7543V38.4301C36 39.3975 36.2535 40.0783 36.4434 40.6059C35.6706 41.0488 35.163 41.7716 34.6895 42.6137C34.1964 43.4904 33.7821 44.513 33.4824 45.5297C33.2816 46.2139 33.1909 47.1047 33.1152 47.9047C33.0396 48.7047 33.002 49.3735 33.002 49.3735L33 49.4028V49.4301C33 51.3746 34.3483 52.9724 36.3027 53.9496C38.2572 54.9269 40.8889 55.4301 44 55.4301C46.5949 55.4301 49.4653 55.0707 51.3496 54.3676L51.3262 54.3071C52.231 55.1275 53.476 55.4793 54.6953 55.4243C56.2669 55.3533 57.8822 54.6705 59.0938 53.4223C60.1894 52.2934 60.8677 50.7829 60.9824 49.2543C61.0972 47.7258 60.5773 46.0913 59.1836 45.1254C58.5416 44.6799 57.8492 44.4846 57.1914 44.477C56.5336 44.4694 55.9102 44.6504 55.4023 44.9594C55.0862 45.1518 54.8045 45.3804 54.5352 45.6196C54.5274 45.5912 54.5238 45.5555 54.5156 45.5278C54.4525 45.3144 54.3842 45.0978 54.3086 44.8793C53.9992 43.9748 53.6074 43.0929 53.1504 42.3383C52.7057 41.6041 52.2279 40.9752 51.5215 40.5825C51.7507 40.0232 52 39.3421 52 38.4301V37.5043C52.045 37.411 52.1005 37.3221 52.1406 37.227C52.3711 36.6805 52.5215 36.0944 52.4863 35.477C52.4511 34.8596 52.1932 34.2092 51.707 33.7231C51.2742 33.2903 50.7503 33.0423 50.209 32.9301C50.0255 32.8921 49.8408 32.8898 49.6562 32.8813C49.381 32.0576 48.7897 31.4216 48.1777 31.0356C47.32 30.4946 46.4151 30.1945 45.7852 29.8227L45.7793 29.8188C44.9248 29.3046 44.0695 28.6785 42.9883 28.4086C42.7174 28.341 42.432 28.3106 42.1387 28.3188ZM42.9941 30.5356C43.4815 30.7607 44.0775 31.1309 44.7539 31.5375C44.7559 31.5388 44.7578 31.5401 44.7598 31.5414C45.6496 32.0683 46.5563 32.3769 47.1113 32.727C47.4019 32.9103 47.5573 33.0659 47.6621 33.2465C46.6725 33.632 45.8057 34.2207 45.1602 34.7172C44.8219 34.9763 44.3488 35.2285 43.8574 35.559C43.3835 35.2399 42.9237 34.9617 42.6152 34.7211C42.612 34.7185 42.6087 34.7159 42.6055 34.7133C42.201 34.4055 41.697 34.0643 41.1543 33.7485C40.8494 33.2265 40.6125 32.6481 40.5703 32.1606C40.524 31.6252 40.6271 31.2536 40.9434 30.9321C40.9942 30.8803 41.0293 30.8574 41.0762 30.8129C41.1519 30.9956 41.28 31.1518 41.4445 31.2616C41.6089 31.3715 41.8022 31.4301 42 31.4301C42.2469 31.43 42.4851 31.3386 42.6686 31.1735C42.8521 31.0083 42.9681 30.7811 42.9941 30.5356ZM43.5 32.4301C43.3674 32.4301 43.2402 32.4828 43.1464 32.5766C43.0527 32.6703 43 32.7975 43 32.9301C43 33.0627 43.0527 33.1899 43.1464 33.2837C43.2402 33.3774 43.3674 33.4301 43.5 33.4301C43.6326 33.4301 43.7598 33.3774 43.8536 33.2837C43.9473 33.1899 44 33.0627 44 32.9301C44 32.7975 43.9473 32.6703 43.8536 32.5766C43.7598 32.4828 43.6326 32.4301 43.5 32.4301ZM49.4453 34.8422C49.8104 34.8144 50.0572 34.9014 50.293 35.1371C50.4368 35.281 50.4785 35.3872 50.4902 35.5922C50.5019 35.7973 50.4458 36.1011 50.2988 36.4496C50.0213 37.1076 49.4087 37.8715 48.7891 38.4594C48.0773 38.7707 47.1528 39.0856 46.0586 39.2602C46.0562 39.2606 46.0551 39.2617 46.0527 39.2621C46.0469 39.2627 46.041 39.2634 46.0352 39.2641C45.8208 39.2998 45.5818 39.3208 45.3477 39.3442C45.649 38.5061 45.5746 37.6842 45.2949 37.0356C45.6377 36.8216 45.9562 36.6273 46.3789 36.3032C46.5577 36.1656 46.7616 36.02 46.9785 35.8774C47.1954 35.7348 47.4255 35.5961 47.6602 35.4672C48.1294 35.2095 48.6134 34.997 49.0312 34.9067C49.0332 34.9067 49.0352 34.9067 49.0371 34.9067C49.1892 34.8729 49.3236 34.8515 49.4453 34.8422ZM38.5273 34.8559C38.8934 34.881 39.3932 35.0527 39.8984 35.3227C40.4252 35.6036 40.9591 35.9738 41.3945 36.3051C42.1112 36.8616 42.8517 37.2171 43.2324 37.5414C43.2452 37.5515 43.2582 37.5613 43.2715 37.5707C43.2721 37.5707 43.2728 37.5707 43.2734 37.5707C43.2734 37.5714 43.2734 37.572 43.2734 37.5727C43.2981 37.5955 43.3288 37.6245 43.3691 37.6645C43.6372 37.9595 43.7286 38.0114 43.4609 38.6977C43.3882 38.8694 43.2902 39.0169 43.1836 39.1235C43.1783 39.1286 43.1731 39.1338 43.168 39.1391C43.0841 39.2266 42.9427 39.3014 42.8105 39.3774C42.4813 39.3585 42.1542 39.3243 41.8418 39.2797L41.8008 39.2739C41.5211 39.2359 41.2532 39.1914 40.9961 39.1411C40.2463 38.9886 39.6152 38.7834 39.1133 38.5707C38.505 38.0087 37.904 37.2392 37.6406 36.561C37.3619 35.8432 37.3868 35.455 37.7051 35.1391C37.7057 35.1384 37.7064 35.1378 37.707 35.1371C37.9621 34.8821 38.1613 34.8308 38.5273 34.8559ZM49.4434 40.3715C49.4266 40.4289 49.418 40.4835 49.3945 40.5453L49.3828 40.5786L49.373 40.6137C49.1991 41.1936 48.7466 41.6012 47.8008 41.934C46.855 42.2668 45.4894 42.4301 43.9395 42.4301C42.3719 42.4301 40.9663 42.2924 40.0215 41.975C39.0766 41.6577 38.6935 41.3083 38.5703 40.7016L38.5664 40.684L38.5625 40.6664C38.547 40.6016 38.535 40.5586 38.5215 40.5082C39.3717 40.8428 40.3881 41.1057 41.5566 41.2621L41.623 41.27H41.6562C41.9801 41.3142 42.3211 41.3506 42.6758 41.3715C42.766 41.3828 42.8874 41.4008 43.0508 41.4008C43.3633 41.4196 43.6808 41.4301 44 41.4301C44.22 41.4301 44.4694 41.425 44.7305 41.4086C44.7637 41.4096 44.7969 41.409 44.8301 41.4067H44.8359L45.1562 41.3774L45.1699 41.3754C45.5362 41.347 45.895 41.3061 46.252 41.2504H46.2891L46.3672 41.2387C47.5618 41.0491 48.5983 40.7253 49.4434 40.3715ZM50.623 42.3969C50.8016 42.5297 51.1262 42.855 51.4414 43.3754C51.8001 43.9676 52.1464 44.7374 52.416 45.5258L52.418 45.5278V45.5297C52.4818 45.7141 52.5411 45.9028 52.5977 46.0942C52.6646 46.3217 52.7459 46.8631 52.8145 47.4203C52.238 48.011 51.3819 48.6167 50.7109 49.5082C50.3517 49.9856 50.0497 50.5905 50.0059 51.2953C49.9792 51.7242 50.0595 52.1683 50.2207 52.6157C48.7062 53.085 46.1948 53.4301 44 53.4301C41.1111 53.4301 38.7428 52.9334 37.1973 52.1606C35.6548 51.3893 35.0045 50.4888 35.002 49.436C35.0045 49.392 35.0364 48.8224 35.1055 48.0922C35.1771 47.3345 35.3082 46.415 35.4023 46.0942H35.4004C35.6607 45.2109 36.0329 44.3032 36.4316 43.5942C36.7421 43.0421 37.0586 42.6919 37.2773 42.4946C37.8058 43.14 38.5671 43.5969 39.3848 43.8715C40.7024 44.3141 42.267 44.4301 43.9395 44.4301C45.6195 44.4301 47.1656 44.2779 48.4648 43.8207C49.3112 43.5229 50.0785 43.0519 50.623 42.3969ZM57.1621 46.3852C57.3939 46.386 57.6525 46.497 58.043 46.768C58.043 46.7687 58.043 46.7693 58.043 46.77C58.7833 47.283 59.0646 48.0877 58.9883 49.1039C58.912 50.1201 58.4065 51.2587 57.6602 52.0278C57.1757 52.5269 56.5728 52.8837 55.9512 53.1196C55.8856 52.919 55.7583 52.7443 55.5875 52.6204C55.4167 52.4966 55.211 52.43 55 52.4301C54.7411 52.4305 54.4924 52.5312 54.3063 52.7111C54.1201 52.8911 54.0111 53.1362 54.002 53.395C53.2594 53.3064 52.6767 52.9887 52.3379 52.436C52.039 51.9484 51.988 51.6429 52.002 51.4184C52.0159 51.1939 52.1012 50.9869 52.3086 50.7114C52.7233 50.1603 53.6293 49.5188 54.4277 48.6352C55.1761 47.8067 55.8743 47.0116 56.4414 46.6664C56.725 46.4939 56.9303 46.3844 57.1621 46.3852ZM57.5 49.4301C57.3674 49.4301 57.2402 49.4828 57.1464 49.5766C57.0527 49.6703 57 49.7975 57 49.9301C57 50.0627 57.0527 50.1899 57.1464 50.2837C57.2402 50.3774 57.3674 50.4301 57.5 50.4301C57.6326 50.4301 57.7598 50.3774 57.8536 50.2837C57.9473 50.1899 58 50.0627 58 49.9301C58 49.7975 57.9473 49.6703 57.8536 49.5766C57.7598 49.4828 57.6326 49.4301 57.5 49.4301ZM54.5 50.4301C54.3674 50.4301 54.2402 50.4828 54.1464 50.5766C54.0527 50.6703 54 50.7975 54 50.9301C54 51.0627 54.0527 51.1899 54.1464 51.2837C54.2402 51.3774 54.3674 51.4301 54.5 51.4301C54.6326 51.4301 54.7598 51.3774 54.8536 51.2837C54.9473 51.1899 55 51.0627 55 50.9301C55 50.7975 54.9473 50.6703 54.8536 50.5766C54.7598 50.4828 54.6326 50.4301 54.5 50.4301Z" fill="#FF5224"/>
</g>
<defs>
<filter id="filter0_d" x="0" y="0.430115" width="92" height="92" filterUnits="userSpaceOnUse" color-interpolation-filters="sRGB">
<feFlood flood-opacity="0" result="BackgroundImageFix"/>
<feColorMatrix in="SourceAlpha" type="matrix" values="0 0 0 0 0 0 0 0 0 0 0 0 0 0 0 0 0 0 127 0"/>
<feOffset dy="4"/>
<feGaussianBlur stdDeviation="8"/>
<feColorMatrix type="matrix" values="0 0 0 0 0.8 0 0 0 0 0.955556 0 0 0 0 1 0 0 0 1 0"/>
<feBlend mode="normal" in2="BackgroundImageFix" result="effect1_dropShadow"/>
<feBlend mode="normal" in="SourceGraphic" in2="effect1_dropShadow" result="shape"/>
</filter>
</defs>
</svg>
