<svg width="92" height="93" viewBox="0 0 92 93" fill="none" xmlns="http://www.w3.org/2000/svg">
<g filter="url(#filter0_d)">
<rect x="16" y="12.4301" width="60" height="60" rx="20" fill="white"/>
<path d="M36.9492 31.4301L37.002 32.4809L38.0488 53.4301H53.9512L55.0508 31.4301H36.9492ZM39.0508 33.4301H52.9492L52.75 37.4301H41.2539L41.3535 39.4301H52.6484L52.0488 51.4301H39.9512L39.0508 33.4301ZM43.5 41.4301C43.1022 41.4301 42.7206 41.5882 42.4393 41.8695C42.158 42.1508 42 42.5323 42 42.9301C42 43.3279 42.158 43.7095 42.4393 43.9908C42.7206 44.2721 43.1022 44.4301 43.5 44.4301C43.8978 44.4301 44.2794 44.2721 44.5607 43.9908C44.842 43.7095 45 43.3279 45 42.9301C45 42.5323 44.842 42.1508 44.5607 41.8695C44.2794 41.5882 43.8978 41.4301 43.5 41.4301ZM48 43.4301C47.7348 43.4301 47.4804 43.5355 47.2929 43.723C47.1054 43.9105 47 44.1649 47 44.4301C47 44.6953 47.1054 44.9497 47.2929 45.1372C47.4804 45.3248 47.7348 45.4301 48 45.4301C48.2652 45.4301 48.5196 45.3248 48.7071 45.1372C48.8946 44.9497 49 44.6953 49 44.4301C49 44.1649 48.8946 43.9105 48.7071 43.723C48.5196 43.5355 48.2652 43.4301 48 43.4301ZM45 47.4301C44.7348 47.4301 44.4804 47.5355 44.2929 47.723C44.1054 47.9105 44 48.1649 44 48.4301C44 48.6953 44.1054 48.9497 44.2929 49.1372C44.4804 49.3248 44.7348 49.4301 45 49.4301C45.2652 49.4301 45.5196 49.3248 45.7071 49.1372C45.8946 48.9497 46 48.6953 46 48.4301C46 48.1649 45.8946 47.9105 45.7071 47.723C45.5196 47.5355 45.2652 47.4301 45 47.4301Z" fill="#FF5224"/>
</g>
<defs>
<filter id="filter0_d" x="0" y="0.430115" width="92" height="92" filterUnits="userSpaceOnUse" color-interpolation-filters="sRGB">
<feFlood flood-opacity="0" result="BackgroundImageFix"/>
<feColorMatrix in="SourceAlpha" type="matrix" values="0 0 0 0 0 0 0 0 0 0 0 0 0 0 0 0 0 0 127 0"/>
<feOffset dy="4"/>
<feGaussianBlur stdDeviation="8"/>
<feColorMatrix type="matrix" values="0 0 0 0 0.8 0 0 0 0 0.955556 0 0 0 0 1 0 0 0 1 0"/>
<feBlend mode="normal" in2="BackgroundImageFix" result="effect1_dropShadow"/>
<feBlend mode="normal" in="SourceGraphic" in2="effect1_dropShadow" result="shape"/>
</filter>
</defs>
</svg>
