<svg width="39" height="41" viewBox="0 0 39 41" fill="none" xmlns="http://www.w3.org/2000/svg">
<rect x="0.5" y="0.930115" width="38" height="39" rx="6.5" fill="#FFF6F4"/>
<path d="M16.36 14.7261C17.544 14.7261 18.5787 14.9661 19.464 15.4461C20.36 15.9154 21.048 16.5768 21.528 17.4301C22.008 18.2834 22.248 19.2594 22.248 20.3581C22.248 21.4461 22.0027 22.4168 21.512 23.2701C21.032 24.1234 20.344 24.7954 19.448 25.2861C18.5627 25.7661 17.5333 26.0061 16.36 26.0061H11.896V14.7261H16.36ZM16.12 23.2381C17.0373 23.2381 17.7573 22.9874 18.28 22.4861C18.8027 21.9848 19.064 21.2754 19.064 20.3581C19.064 19.4301 18.8027 18.7154 18.28 18.2141C17.7573 17.7021 17.0373 17.4461 16.12 17.4461H15.032V23.2381H16.12Z" fill="#FF5224"/>
<path d="M25.1816 26.1341C24.627 26.1341 24.179 25.9848 23.8376 25.6861C23.507 25.3768 23.3416 24.8555 23.3416 24.3861C23.3416 23.9168 23.507 23.4733 23.8376 23.164C24.179 22.8547 24.627 22.7 25.1816 22.7C25.7256 22.7 26.163 22.8547 26.4936 23.164C26.835 23.4733 27.0056 23.9168 27.0056 24.3861C27.0056 24.8448 26.835 25.3608 26.4936 25.6701C26.163 25.9794 25.7256 26.1341 25.1816 26.1341Z" fill="#FF5224"/>
<rect x="0.5" y="0.930115" width="38" height="39" rx="6.5" stroke="#FF5224"/>
</svg>
